<?xml version="1.0" encoding="UTF-8"?>
<!--Generator: Apple Native CoreSVG 175.5-->
<!DOCTYPE svg
PUBLIC "-//W3C//DTD SVG 1.1//EN"
       "http://www.w3.org/Graphics/SVG/1.1/DTD/svg11.dtd">
<svg version="1.1" xmlns="http://www.w3.org/2000/svg" xmlns:xlink="http://www.w3.org/1999/xlink" width="3300" height="2200">
 <!--glyph: "uni100A7D.medium", point size: 100.0, font version: "18.0d9e1", template writer version: "84"-->
 <g id="Notes">
  <rect height="2200" id="artboard" style="fill:white;opacity:1" width="3300" x="0" y="0"/>
  <line style="fill:none;stroke:black;opacity:1;stroke-width:0.5;" x1="263" x2="3036" y1="292" y2="292"/>
  <text style="stroke:none;fill:black;font-family:sans-serif;font-size:13;font-weight:bold;" transform="matrix(1 0 0 1 263 322)">Weight/Scale Variations</text>
  <text style="stroke:none;fill:black;font-family:sans-serif;font-size:13;text-anchor:middle;" transform="matrix(1 0 0 1 559.711 322)">Ultralight</text>
  <text style="stroke:none;fill:black;font-family:sans-serif;font-size:13;text-anchor:middle;" transform="matrix(1 0 0 1 856.422 322)">Thin</text>
  <text style="stroke:none;fill:black;font-family:sans-serif;font-size:13;text-anchor:middle;" transform="matrix(1 0 0 1 1153.13 322)">Light</text>
  <text style="stroke:none;fill:black;font-family:sans-serif;font-size:13;text-anchor:middle;" transform="matrix(1 0 0 1 1449.84 322)">Regular</text>
  <text style="stroke:none;fill:black;font-family:sans-serif;font-size:13;text-anchor:middle;" transform="matrix(1 0 0 1 1746.56 322)">Medium</text>
  <text style="stroke:none;fill:black;font-family:sans-serif;font-size:13;text-anchor:middle;" transform="matrix(1 0 0 1 2043.27 322)">Semibold</text>
  <text style="stroke:none;fill:black;font-family:sans-serif;font-size:13;text-anchor:middle;" transform="matrix(1 0 0 1 2339.98 322)">Bold</text>
  <text style="stroke:none;fill:black;font-family:sans-serif;font-size:13;text-anchor:middle;" transform="matrix(1 0 0 1 2636.69 322)">Heavy</text>
  <text style="stroke:none;fill:black;font-family:sans-serif;font-size:13;text-anchor:middle;" transform="matrix(1 0 0 1 2933.4 322)">Black</text>
  <line style="fill:none;stroke:black;opacity:1;stroke-width:0.5;" x1="263" x2="3036" y1="1903" y2="1903"/>
  <g transform="matrix(1 0 0 1 263 1933)">
   <path d="M9.24805 0.830078Q10.8691 0.830078 12.2949 0.214844Q13.7207-0.400391 14.8096-1.49414Q15.8984-2.58789 16.5186-4.01367Q17.1387-5.43945 17.1387-7.05078Q17.1387-8.66211 16.5186-10.0879Q15.8984-11.5137 14.8047-12.6074Q13.7109-13.7012 12.2852-14.3164Q10.8594-14.9316 9.23828-14.9316Q7.62695-14.9316 6.20117-14.3164Q4.77539-13.7012 3.69141-12.6074Q2.60742-11.5137 1.9873-10.0879Q1.36719-8.66211 1.36719-7.05078Q1.36719-5.43945 1.9873-4.01367Q2.60742-2.58789 3.69629-1.49414Q4.78516-0.400391 6.21094 0.214844Q7.63672 0.830078 9.24805 0.830078ZM9.24805-0.654297Q7.91992-0.654297 6.7627-1.14746Q5.60547-1.64062 4.73145-2.51953Q3.85742-3.39844 3.36426-4.56055Q2.87109-5.72266 2.87109-7.05078Q2.87109-8.37891 3.35938-9.54102Q3.84766-10.7031 4.72168-11.582Q5.5957-12.4609 6.75293-12.9541Q7.91016-13.4473 9.23828-13.4473Q10.5762-13.4473 11.7383-12.9541Q12.9004-12.4609 13.7793-11.582Q14.6582-10.7031 15.1514-9.54102Q15.6445-8.37891 15.6445-7.05078Q15.6445-5.72266 15.1514-4.56055Q14.6582-3.39844 13.7793-2.51953Q12.9004-1.64062 11.7432-1.14746Q10.5859-0.654297 9.24805-0.654297ZM5.6543-7.05078Q5.6543-6.72852 5.85938-6.52832Q6.06445-6.32812 6.40625-6.32812L8.51562-6.32812L8.51562-4.20898Q8.51562-3.88672 8.71094-3.67676Q8.90625-3.4668 9.23828-3.4668Q9.56055-3.4668 9.77051-3.67676Q9.98047-3.88672 9.98047-4.20898L9.98047-6.32812L12.0898-6.32812Q12.4219-6.32812 12.627-6.52832Q12.832-6.72852 12.832-7.05078Q12.832-7.38281 12.627-7.58789Q12.4219-7.79297 12.0898-7.79297L9.98047-7.79297L9.98047-9.90234Q9.98047-10.2344 9.77051-10.4443Q9.56055-10.6543 9.23828-10.6543Q8.90625-10.6543 8.71094-10.4443Q8.51562-10.2344 8.51562-9.90234L8.51562-7.79297L6.40625-7.79297Q6.06445-7.79297 5.85938-7.58789Q5.6543-7.38281 5.6543-7.05078Z"/>
  </g>
  <g transform="matrix(1 0 0 1 281.867 1933)">
   <path d="M11.709 2.91016Q13.75 2.91016 15.5518 2.12891Q17.3535 1.34766 18.7305-0.0292969Q20.1074-1.40625 20.8887-3.20801Q21.6699-5.00977 21.6699-7.05078Q21.6699-9.0918 20.8887-10.8936Q20.1074-12.6953 18.7305-14.0723Q17.3535-15.4492 15.5469-16.2305Q13.7402-17.0117 11.6992-17.0117Q9.6582-17.0117 7.85645-16.2305Q6.05469-15.4492 4.68262-14.0723Q3.31055-12.6953 2.5293-10.8936Q1.74805-9.0918 1.74805-7.05078Q1.74805-5.00977 2.5293-3.20801Q3.31055-1.40625 4.6875-0.0292969Q6.06445 1.34766 7.86621 2.12891Q9.66797 2.91016 11.709 2.91016ZM11.709 1.25Q9.98047 1.25 8.47656 0.605469Q6.97266-0.0390625 5.83496-1.17676Q4.69727-2.31445 4.05762-3.81836Q3.41797-5.32227 3.41797-7.05078Q3.41797-8.7793 4.05762-10.2832Q4.69727-11.7871 5.83008-12.9297Q6.96289-14.0723 8.4668-14.7119Q9.9707-15.3516 11.6992-15.3516Q13.4277-15.3516 14.9365-14.7119Q16.4453-14.0723 17.583-12.9297Q18.7207-11.7871 19.3652-10.2832Q20.0098-8.7793 20.0098-7.05078Q20.0098-5.32227 19.3701-3.81836Q18.7305-2.31445 17.5879-1.17676Q16.4453-0.0390625 14.9414 0.605469Q13.4375 1.25 11.709 1.25ZM7.17773-7.05078Q7.17773-6.69922 7.41211-6.47461Q7.64648-6.25 8.01758-6.25L10.8887-6.25L10.8887-3.36914Q10.8887-2.99805 11.1133-2.76855Q11.3379-2.53906 11.6895-2.53906Q12.0605-2.53906 12.29-2.76855Q12.5195-2.99805 12.5195-3.36914L12.5195-6.25L15.4004-6.25Q15.7715-6.25 16.001-6.47461Q16.2305-6.69922 16.2305-7.05078Q16.2305-7.42188 16.001-7.65137Q15.7715-7.88086 15.4004-7.88086L12.5195-7.88086L12.5195-10.752Q12.5195-11.1328 12.29-11.3623Q12.0605-11.5918 11.6895-11.5918Q11.3379-11.5918 11.1133-11.3574Q10.8887-11.123 10.8887-10.752L10.8887-7.88086L8.01758-7.88086Q7.63672-7.88086 7.40723-7.65137Q7.17773-7.42188 7.17773-7.05078Z"/>
  </g>
  <g transform="matrix(1 0 0 1 305.646 1933)">
   <path d="M14.9707 5.66406Q17.0605 5.66406 18.96 5.01465Q20.8594 4.36523 22.4512 3.19336Q24.043 2.02148 25.2197 0.429688Q26.3965-1.16211 27.0459-3.06641Q27.6953-4.9707 27.6953-7.05078Q27.6953-9.14062 27.0459-11.04Q26.3965-12.9395 25.2197-14.5312Q24.043-16.123 22.4512-17.2998Q20.8594-18.4766 18.9551-19.126Q17.0508-19.7754 14.9609-19.7754Q12.8711-19.7754 10.9717-19.126Q9.07227-18.4766 7.48535-17.2998Q5.89844-16.123 4.72168-14.5312Q3.54492-12.9395 2.90039-11.04Q2.25586-9.14062 2.25586-7.05078Q2.25586-4.9707 2.90527-3.06641Q3.55469-1.16211 4.72656 0.429688Q5.89844 2.02148 7.49023 3.19336Q9.08203 4.36523 10.9814 5.01465Q12.8809 5.66406 14.9707 5.66406ZM14.9707 3.84766Q13.1641 3.84766 11.5283 3.2959Q9.89258 2.74414 8.53516 1.74805Q7.17773 0.751953 6.17676-0.610352Q5.17578-1.97266 4.62891-3.6084Q4.08203-5.24414 4.08203-7.05078Q4.08203-8.86719 4.62891-10.5029Q5.17578-12.1387 6.17188-13.501Q7.16797-14.8633 8.52539-15.8594Q9.88281-16.8555 11.5186-17.4023Q13.1543-17.9492 14.9609-17.9492Q16.7773-17.9492 18.4131-17.4023Q20.0488-16.8555 21.4111-15.8594Q22.7734-14.8633 23.7744-13.501Q24.7754-12.1387 25.3223-10.5029Q25.8691-8.86719 25.8691-7.05078Q25.8691-5.24414 25.3223-3.6084Q24.7754-1.97266 23.7793-0.610352Q22.7832 0.751953 21.4209 1.74805Q20.0586 2.74414 18.4229 3.2959Q16.7871 3.84766 14.9707 3.84766ZM9.19922-7.05078Q9.19922-6.66992 9.45801-6.4209Q9.7168-6.17188 10.1172-6.17188L14.0625-6.17188L14.0625-2.2168Q14.0625-1.81641 14.3115-1.55762Q14.5605-1.29883 14.9512-1.29883Q15.3516-1.29883 15.6104-1.55273Q15.8691-1.80664 15.8691-2.2168L15.8691-6.17188L19.8242-6.17188Q20.2246-6.17188 20.4785-6.4209Q20.7324-6.66992 20.7324-7.05078Q20.7324-7.46094 20.4785-7.71484Q20.2246-7.96875 19.8242-7.96875L15.8691-7.96875L15.8691-11.9141Q15.8691-12.3242 15.6104-12.583Q15.3516-12.8418 14.9512-12.8418Q14.5605-12.8418 14.3115-12.583Q14.0625-12.3242 14.0625-11.9141L14.0625-7.96875L10.1172-7.96875Q9.70703-7.96875 9.45312-7.71484Q9.19922-7.46094 9.19922-7.05078Z"/>
  </g>
  <text style="stroke:none;fill:black;font-family:sans-serif;font-size:13;font-weight:bold;" transform="matrix(1 0 0 1 263 1953)">Design Variations</text>
  <text style="stroke:none;fill:black;font-family:sans-serif;font-size:13;" transform="matrix(1 0 0 1 263 1971)">Symbols are supported in up to nine weights and three scales.</text>
  <text style="stroke:none;fill:black;font-family:sans-serif;font-size:13;" transform="matrix(1 0 0 1 263 1989)">For optimal layout with text and other symbols, vertically align</text>
  <text style="stroke:none;fill:black;font-family:sans-serif;font-size:13;" transform="matrix(1 0 0 1 263 2007)">symbols with the adjacent text.</text>
  <line style="fill:none;stroke:#00AEEF;stroke-width:0.5;opacity:1.0;" x1="776" x2="776" y1="1919" y2="1933"/>
  <g transform="matrix(1 0 0 1 776 1933)">
   <path d="M3.31055 0.15625Q3.70117 0.15625 3.91602-0.00976562Q4.13086-0.175781 4.26758-0.585938L5.52734-4.0332L11.2891-4.0332L12.5488-0.585938Q12.6855-0.175781 12.9004-0.00976562Q13.1152 0.15625 13.4961 0.15625Q13.8867 0.15625 14.1162-0.0585938Q14.3457-0.273438 14.3457-0.644531Q14.3457-0.869141 14.2383-1.17188L9.6582-13.3691Q9.48242-13.8184 9.17969-14.043Q8.87695-14.2676 8.4082-14.2676Q7.5-14.2676 7.17773-13.3789L2.59766-1.16211Q2.49023-0.859375 2.49023-0.634766Q2.49023-0.263672 2.70996-0.0537109Q2.92969 0.15625 3.31055 0.15625ZM6.00586-5.51758L8.37891-12.0898L8.42773-12.0898L10.8008-5.51758Z"/>
  </g>
  <line style="fill:none;stroke:#00AEEF;stroke-width:0.5;opacity:1.0;" x1="793.197" x2="793.197" y1="1919" y2="1933"/>
  <text style="stroke:none;fill:black;font-family:sans-serif;font-size:13;font-weight:bold;" transform="matrix(1 0 0 1 776 1953)">Margins</text>
  <text style="stroke:none;fill:black;font-family:sans-serif;font-size:13;" transform="matrix(1 0 0 1 776 1971)">Leading and trailing margins on the left and right side of each symbol</text>
  <text style="stroke:none;fill:black;font-family:sans-serif;font-size:13;" transform="matrix(1 0 0 1 776 1989)">can be adjusted by modifying the x-location of the margin guidelines.</text>
  <text style="stroke:none;fill:black;font-family:sans-serif;font-size:13;" transform="matrix(1 0 0 1 776 2007)">Modifications are automatically applied proportionally to all</text>
  <text style="stroke:none;fill:black;font-family:sans-serif;font-size:13;" transform="matrix(1 0 0 1 776 2025)">scales and weights.</text>
  <g transform="matrix(1 0 0 1 1289 1933)">
   <path d="M2.8418 1.86523L4.54102 3.57422Q5.18555 4.22852 5.90332 4.17969Q6.62109 4.13086 7.31445 3.35938L18.0078-8.42773L17.041-9.4043L6.42578 2.27539Q6.16211 2.57812 5.89355 2.61719Q5.625 2.65625 5.27344 2.30469L4.10156 1.14258Q3.75 0.791016 3.79395 0.522461Q3.83789 0.253906 4.14062-0.0195312L15.6152-10.8203L14.6387-11.7871L3.04688-0.898438Q2.30469-0.214844 2.25098 0.498047Q2.19727 1.21094 2.8418 1.86523ZM9.25781-16.3281Q8.94531-16.0254 8.90625-15.6348Q8.86719-15.2441 9.04297-14.9512Q9.21875-14.6777 9.55566-14.541Q9.89258-14.4043 10.3809-14.5215Q11.4746-14.7754 12.5977-14.7314Q13.7207-14.6875 14.7949-13.9844L14.209-12.5293Q13.9551-11.9043 14.0674-11.4404Q14.1797-10.9766 14.5801-10.5664L16.875-8.25195Q17.2363-7.88086 17.5781-7.82227Q17.9199-7.76367 18.3398-7.8418L19.4043-8.03711L20.0684-7.36328L20.0293-6.80664Q20-6.43555 20.1221-6.12305Q20.2441-5.81055 20.6055-5.44922L21.3672-4.70703Q21.7285-4.3457 22.1533-4.33105Q22.5781-4.31641 22.9297-4.66797L25.8398-7.58789Q26.1914-7.93945 26.1816-8.35449Q26.1719-8.76953 25.8105-9.13086L25.0391-9.89258Q24.6875-10.2539 24.3799-10.3857Q24.0723-10.5176 23.7109-10.4883L23.1348-10.4395L22.4902-11.0742L22.7344-12.1973Q22.832-12.6172 22.6953-12.9834Q22.5586-13.3496 22.1191-13.7891L19.9219-15.9766Q18.6719-17.2168 17.2607-17.8369Q15.8496-18.457 14.4189-18.4814Q12.9883-18.5059 11.665-17.959Q10.3418-17.4121 9.25781-16.3281ZM10.752-15.957Q11.6602-16.6211 12.7002-16.9043Q13.7402-17.1875 14.8047-17.085Q15.8691-16.9824 16.8701-16.5137Q17.8711-16.0449 18.7012-15.2051L21.1328-12.793Q21.3086-12.6172 21.3525-12.4512Q21.3965-12.2852 21.3379-12.0312L21.0156-10.5469L22.5195-9.0625L23.5059-9.12109Q23.6914-9.13086 23.7891-9.09668Q23.8867-9.0625 24.0332-8.91602L24.6094-8.33984L22.168-5.89844L21.5918-6.47461Q21.4453-6.62109 21.4062-6.71875Q21.3672-6.81641 21.377-7.01172L21.4453-7.98828L19.9512-9.47266L18.4277-9.21875Q18.1836-9.16992 18.042-9.2041Q17.9004-9.23828 17.7148-9.41406L15.7129-11.416Q15.5176-11.5918 15.4932-11.7529Q15.4688-11.9141 15.5859-12.1875L16.4648-14.2773Q15.293-15.3711 13.8281-15.791Q12.3633-16.2109 10.8398-15.7617Q10.7227-15.7324 10.6885-15.8057Q10.6543-15.8789 10.752-15.957Z"/>
  </g>
  <text style="stroke:none;fill:black;font-family:sans-serif;font-size:13;font-weight:bold;" transform="matrix(1 0 0 1 1289 1953)">Exporting</text>
  <text style="stroke:none;fill:black;font-family:sans-serif;font-size:13;" transform="matrix(1 0 0 1 1289 1971)">Symbols should be outlined when exporting to ensure the</text>
  <text style="stroke:none;fill:black;font-family:sans-serif;font-size:13;" transform="matrix(1 0 0 1 1289 1989)">design is preserved when submitting to Xcode.</text>
  <text id="template-version" style="stroke:none;fill:black;font-family:sans-serif;font-size:13;text-anchor:end;" transform="matrix(1 0 0 1 3036 1933)">Template v.2.0</text>
  <text style="stroke:none;fill:black;font-family:sans-serif;font-size:13;text-anchor:end;" transform="matrix(1 0 0 1 3036 1951)">Requires Xcode 12 or greater</text>
  <text id="descriptive-name" style="stroke:none;fill:black;font-family:sans-serif;font-size:13;text-anchor:end;" transform="matrix(1 0 0 1 3036 1969)">Generated from doc.text.image</text>
  <text style="stroke:none;fill:black;font-family:sans-serif;font-size:13;text-anchor:end;" transform="matrix(1 0 0 1 3036 1987)">Typeset at 100 points</text>
  <text style="stroke:none;fill:black;font-family:sans-serif;font-size:13;" transform="matrix(1 0 0 1 263 726)">Small</text>
  <text style="stroke:none;fill:black;font-family:sans-serif;font-size:13;" transform="matrix(1 0 0 1 263 1156)">Medium</text>
  <text style="stroke:none;fill:black;font-family:sans-serif;font-size:13;" transform="matrix(1 0 0 1 263 1586)">Large</text>
 </g>
 <g id="Guides">
  <g id="H-reference" style="fill:#27AAE1;stroke:none;" transform="matrix(1 0 0 1 339 696)">
   <path d="M0.993347 0L3.6377 0L29.3282-67.1326L30.0301-67.1326L30.0301-70.459L28.1227-70.459ZM11.6882-24.4797L46.9818-24.4797L46.2311-26.7288L12.4382-26.7288ZM55.1193 0L57.7637 0L30.6381-70.459L29.4327-70.459L29.4327-67.1326Z"/>
  </g>
  <line id="Baseline-S" style="fill:none;stroke:#27AAE1;opacity:1;stroke-width:0.5;" x1="263" x2="3036" y1="696" y2="696"/>
  <line id="Capline-S" style="fill:none;stroke:#27AAE1;opacity:1;stroke-width:0.5;" x1="263" x2="3036" y1="625.541" y2="625.541"/>
  <g id="H-reference" style="fill:#27AAE1;stroke:none;" transform="matrix(1 0 0 1 339 1126)">
   <path d="M0.993347 0L3.6377 0L29.3282-67.1326L30.0301-67.1326L30.0301-70.459L28.1227-70.459ZM11.6882-24.4797L46.9818-24.4797L46.2311-26.7288L12.4382-26.7288ZM55.1193 0L57.7637 0L30.6381-70.459L29.4327-70.459L29.4327-67.1326Z"/>
  </g>
  <line id="Baseline-M" style="fill:none;stroke:#27AAE1;opacity:1;stroke-width:0.5;" x1="263" x2="3036" y1="1126" y2="1126"/>
  <line id="Capline-M" style="fill:none;stroke:#27AAE1;opacity:1;stroke-width:0.5;" x1="263" x2="3036" y1="1055.54" y2="1055.54"/>
  <g id="H-reference" style="fill:#27AAE1;stroke:none;" transform="matrix(1 0 0 1 339 1556)">
   <path d="M0.993347 0L3.6377 0L29.3282-67.1326L30.0301-67.1326L30.0301-70.459L28.1227-70.459ZM11.6882-24.4797L46.9818-24.4797L46.2311-26.7288L12.4382-26.7288ZM55.1193 0L57.7637 0L30.6381-70.459L29.4327-70.459L29.4327-67.1326Z"/>
  </g>
  <line id="Baseline-L" style="fill:none;stroke:#27AAE1;opacity:1;stroke-width:0.5;" x1="263" x2="3036" y1="1556" y2="1556"/>
  <line id="Capline-L" style="fill:none;stroke:#27AAE1;opacity:1;stroke-width:0.5;" x1="263" x2="3036" y1="1485.54" y2="1485.54"/>
  <line id="left-margin" style="fill:none;stroke:#00AEEF;stroke-width:0.5;opacity:1.0;" x1="1396.32" x2="1396.32" y1="1030.79" y2="1150.12"/>
  <line id="right-margin" style="fill:none;stroke:#00AEEF;stroke-width:0.5;opacity:1.0;" x1="1503.37" x2="1503.37" y1="1030.79" y2="1150.12"/>
 </g>
 <g id="Symbols">
  <g id="Black-L" transform="matrix(1 0 0 1 2859.72 1556)">
   <path d="M53.481-65.2259L94.7513-65.2259Q96.6414-65.2259 97.9058-66.5194Q99.1701-67.813 99.1701-69.7239Q99.1701-71.5348 97.9058-72.7985Q96.6414-74.0623 94.7513-74.0623L53.481-74.0623Q51.5105-74.0623 50.2364-72.7985Q48.9622-71.5348 48.9622-69.7239Q48.9622-67.813 50.2364-66.5194Q51.5105-65.2259 53.481-65.2259ZM53.481-47.7849L77.1871-47.7849Q79.0993-47.7849 80.363-49.0883Q81.6268-50.3916 81.6268-52.2817Q81.6268-54.0926 80.363-55.3564Q79.0993-56.6201 77.1871-56.6201L53.481-56.6201Q51.5105-56.6201 50.2364-55.3564Q48.9622-54.0926 48.9622-52.2817Q48.9622-50.3916 50.2364-49.0883Q51.5105-47.7849 53.481-47.7849ZM54.2149 5.26006L93.3473 5.26006Q100.679 5.26006 100.679-2.07073L100.679-31.8484Q100.679-39.1792 93.3473-39.1792L54.2149-39.1792Q46.7453-39.1792 46.7453-31.8484L46.7453-2.07073Q46.7453 5.26006 54.2149 5.26006ZM16.084 11.4202Q16.084 22.7878 22.2652 28.9898Q28.4464 35.1919 39.7724 35.1919L107.573 35.1919Q118.9 35.1919 125.091 28.9898Q131.282 22.7878 131.282 11.4202L131.282-81.838Q131.282-93.1848 125.091-99.3972Q118.9-105.61 107.573-105.61L39.7724-105.61Q28.4464-105.61 22.2652-99.3972Q16.084-93.1848 16.084-81.838ZM36.065 8.68948L36.065-79.1073Q36.065-82.3725 37.6236-84.0006Q39.1823-85.6287 42.628-85.6287L104.738-85.6287Q108.221-85.6287 109.751-84.0006Q111.282-82.3725 111.282-79.1073L111.282 8.68948Q111.282 11.8963 109.751 13.5536Q108.221 15.2108 104.738 15.2108L42.628 15.2108Q39.1823 15.2108 37.6236 13.5536Q36.065 11.8963 36.065 8.68948Z"/>
  </g>
  <g id="Heavy-L" transform="matrix(1 0 0 1 2564.15 1556)">
   <path d="M51.3026-66.5468L94.9475-66.5468Q96.7576-66.5468 97.9731-67.7846Q99.1886-69.0224 99.1886-70.8627Q99.1886-72.5979 97.9731-73.8106Q96.7576-75.0233 94.9475-75.0233L51.3026-75.0233Q49.4121-75.0233 48.1843-73.8106Q46.9566-72.5979 46.9566-70.8627Q46.9566-69.0224 48.1843-67.7846Q49.4121-66.5468 51.3026-66.5468ZM51.3026-48.941L76.6022-48.941Q78.448-48.941 79.6607-50.1911Q80.8735-51.4412 80.8735-53.2513Q80.8735-54.9866 79.6607-56.1993Q78.448-57.412 76.6022-57.412L51.3026-57.412Q49.4121-57.412 48.1843-56.1993Q46.9566-54.9866 46.9566-53.2513Q46.9566-51.4412 48.1843-50.1911Q49.4121-48.941 51.3026-48.941ZM52.1004 6.57506L93.1379 6.57506Q100.723 6.57506 100.723-1.00441L100.723-32.2269Q100.723-39.8063 93.1379-39.8063L52.1004-39.8063Q44.396-39.8063 44.396-32.2269L44.396-1.00441Q44.396 6.57506 52.1004 6.57506ZM16.084 11.7397Q16.084 22.7128 21.941 28.6Q27.7979 34.4872 38.7107 34.4872L106.333 34.4872Q117.252 34.4872 123.121 28.6Q128.99 22.7128 128.99 11.7397L128.99-82.1674Q128.99-93.1104 123.121-99.0126Q117.252-104.915 106.333-104.915L38.7107-104.915Q27.7979-104.915 21.941-99.0126Q16.084-93.1104 16.084-82.1674ZM33.5844 9.61544L33.5844-80.0432Q33.5844-83.6896 35.3843-85.552Q37.1843-87.4145 41.0161-87.4145L104.058-87.4145Q107.904-87.4145 109.685-85.552Q111.465-83.6896 111.465-80.0432L111.465 9.61544Q111.465 13.2172 109.685 15.102Q107.904 16.9867 104.058 16.9867L41.0161 16.9867Q37.1843 16.9867 35.3843 15.102Q33.5844 13.2172 33.5844 9.61544Z"/>
  </g>
  <g id="Bold-L" transform="matrix(1 0 0 1 2268.83 1556)">
   <path d="M48.598-68.1984L95.1188-68.1984Q96.7992-68.1984 97.9346-69.3484Q99.07-70.4984 99.07-72.2168Q99.07-73.8299 97.9346-74.9588Q96.7992-76.0876 95.1188-76.0876L48.598-76.0876Q46.8373-76.0876 45.6895-74.9588Q44.5417-73.8299 44.5417-72.2168Q44.5417-70.4984 45.6895-69.3484Q46.8373-68.1984 48.598-68.1984ZM48.598-50.4672L75.9692-50.4672Q77.7008-50.4672 78.8297-51.6296Q79.9585-52.792 79.9585-54.4723Q79.9585-56.0856 78.8297-57.2145Q77.7008-58.3433 75.9692-58.3433L48.598-58.3433Q46.8373-58.3433 45.6895-57.2145Q44.5417-56.0856 44.5417-54.4723Q44.5417-52.792 45.6895-51.6296Q46.8373-50.4672 48.598-50.4672ZM49.4727 8.3084L92.9438 8.3084Q100.807 8.3084 100.807 0.458735L100.807-32.7627Q100.807-40.6121 92.9438-40.6121L49.4727-40.6121Q41.5137-40.6121 41.5137-32.7627L41.5137 0.458735Q41.5137 8.3084 49.4727 8.3084ZM16.084 12.1988Q16.084 22.6504 21.5488 28.1532Q27.0136 33.656 37.3893 33.656L104.864 33.656Q115.253 33.656 120.73 28.1532Q126.207 22.6504 126.207 12.1988L126.207-82.6269Q126.207-93.0406 120.73-98.5624Q115.253-104.084 104.864-104.084L37.3893-104.084Q27.0136-104.084 21.5488-98.5624Q16.084-93.0406 16.084-82.6269ZM30.5258 10.753L30.5258-81.1811Q30.5258-85.3261 32.6291-87.4842Q34.7324-89.6424 39.063-89.6424L103.228-89.6424Q107.55-89.6424 109.645-87.4842Q111.741-85.3261 111.741-81.1811L111.741 10.753Q111.741 14.8688 109.645 17.0415Q107.55 19.2143 103.228 19.2143L39.063 19.2143Q34.7324 19.2143 32.6291 17.0415Q30.5258 14.8688 30.5258 10.753Z"/>
  </g>
  <g id="Semibold-L" transform="matrix(1 0 0 1 1973.08 1556)">
   <path d="M46.7335-69.337L95.2369-69.337Q96.8279-69.337 97.9081-70.4264Q98.9883-71.5159 98.9883-73.1504Q98.9883-74.6793 97.9081-75.7503Q96.8279-76.8213 95.2369-76.8213L46.7335-76.8213Q45.0622-76.8213 43.9695-75.7503Q42.8769-74.6793 42.8769-73.1504Q42.8769-71.5159 43.9695-70.4264Q45.0622-69.337 46.7335-69.337ZM46.7335-51.5193L75.5329-51.5193Q77.1857-51.5193 78.2567-52.6212Q79.3277-53.7232 79.3277-55.3141Q79.3277-56.8433 78.2567-57.9143Q77.1857-58.9854 75.5329-58.9854L46.7335-58.9854Q45.0622-58.9854 43.9695-57.9143Q42.8769-56.8433 42.8769-55.3141Q42.8769-53.7232 43.9695-52.6212Q45.0622-51.5193 46.7335-51.5193ZM47.6612 9.50335L92.81 9.50335Q100.864 9.50335 100.864 1.46742L100.864-33.1321Q100.864-41.1677 92.81-41.1677L47.6612-41.1677Q39.5266-41.1677 39.5266-33.1321L39.5266 1.46742Q39.5266 9.50335 47.6612 9.50335ZM16.084 12.5153Q16.084 22.6074 21.2785 27.8452Q26.4729 33.0831 36.4783 33.0831L103.85 33.0831Q113.874 33.0831 119.081 27.8452Q124.288 22.6074 124.288 12.5153L124.288-82.9436Q124.288-92.9925 119.081-98.252Q113.874-103.511 103.85-103.511L36.4783-103.511Q26.4729-103.511 21.2785-98.252Q16.084-92.9925 16.084-82.9436ZM28.4171 11.5372L28.4171-81.9656Q28.4171-86.4543 30.7296-88.8163Q33.0421-91.1783 37.7166-91.1783L102.655-91.1783Q107.305-91.1783 109.618-88.8163Q111.93-86.4543 111.93-81.9656L111.93 11.5372Q111.93 16.0074 109.618 18.3787Q107.305 20.7499 102.655 20.7499L37.7166 20.7499Q33.0421 20.7499 30.7296 18.3787Q28.4171 16.0074 28.4171 11.5372Z"/>
  </g>
  <g id="Medium-L" transform="matrix(1 0 0 1 1677.1 1556)">
   <path d="M45.3198-70.2003L95.3265-70.2003Q96.8496-70.2003 97.888-71.2439Q98.9263-72.2875 98.9263-73.8583Q98.9263-75.3233 97.888-76.3505Q96.8496-77.3777 95.3265-77.3777L45.3198-77.3777Q43.7162-77.3777 42.6654-76.3505Q41.6145-75.3233 41.6145-73.8583Q41.6145-72.2875 42.6654-71.2439Q43.7162-70.2003 45.3198-70.2003ZM45.3198-52.3171L75.202-52.3171Q76.7951-52.3171 77.8223-53.3732Q78.8495-54.4293 78.8495-55.9524Q78.8495-57.4178 77.8223-58.445Q76.7951-59.4722 75.202-59.4722L45.3198-59.4722Q43.7162-59.4722 42.6654-58.445Q41.6145-57.4178 41.6145-55.9524Q41.6145-54.4293 42.6654-53.3732Q43.7162-52.3171 45.3198-52.3171ZM46.2877 10.4094L92.7085 10.4094Q100.908 10.4094 100.908 2.23225L100.908-33.4122Q100.908-41.589 92.7085-41.589L46.2877-41.589Q38.02-41.589 38.02-33.4122L38.02 2.23225Q38.02 10.4094 46.2877 10.4094ZM16.084 12.7553Q16.084 22.5747 21.0735 27.6117Q26.063 32.6486 35.7875 32.6486L103.082 32.6486Q112.829 32.6486 117.831 27.6117Q122.833 22.5747 122.833 12.7553L122.833-83.1838Q122.833-92.956 117.831-98.0166Q112.829-103.077 103.082-103.077L35.7875-103.077Q26.063-103.077 21.0735-98.0166Q16.084-92.956 16.084-83.1838ZM26.8183 12.1318L26.8183-82.5604Q26.8183-87.3098 29.2894-89.8263Q31.7604-92.3428 36.6956-92.3428L102.221-92.3428Q107.12-92.3428 109.597-89.8263Q112.074-87.3098 112.074-82.5604L112.074 12.1318Q112.074 16.8707 109.597 19.3925Q107.12 21.9143 102.221 21.9143L36.6956 21.9143Q31.7604 21.9143 29.2894 19.3925Q26.8183 16.8707 26.8183 12.1318Z"/>
  </g>
  <g id="Regular-L" transform="matrix(1 0 0 1 1381.33 1556)">
   <path d="M43.4758-71.3264L95.4433-71.3264Q96.878-71.3264 97.8618-72.3101Q98.8455-73.2939 98.8455-74.7816Q98.8455-76.1633 97.8618-77.1333Q96.878-78.1034 95.4433-78.1034L43.4758-78.1034Q41.9606-78.1034 40.9643-77.1333Q39.968-76.1633 39.968-74.7816Q39.968-73.2939 40.9643-72.3101Q41.9606-71.3264 43.4758-71.3264ZM43.4758-53.3576L74.7704-53.3576Q76.2856-53.3576 77.2556-54.3539Q78.2256-55.3502 78.2256-56.7849Q78.2256-58.1671 77.2556-59.1371Q76.2856-60.1072 74.7704-60.1072L43.4758-60.1072Q41.9606-60.1072 40.9643-59.1371Q39.968-58.1671 39.968-56.7849Q39.968-55.3502 40.9643-54.3539Q41.9606-53.3576 43.4758-53.3576ZM44.4961 11.5912L92.5762 11.5912Q100.965 11.5912 100.965 3.22985L100.965-33.7775Q100.965-42.1384 92.5762-42.1384L44.4961-42.1384Q36.0548-42.1384 36.0548-33.7775L36.0548 3.22985Q36.0548 11.5912 44.4961 11.5912ZM16.084 13.0683Q16.084 22.5321 20.8061 27.307Q25.5282 32.0819 34.8865 32.0819L102.08 32.0819Q111.466 32.0819 116.201 27.307Q120.935 22.5321 120.935 13.0683L120.935-83.4971Q120.935-92.9084 116.201-97.7096Q111.466-102.511 102.08-102.511L34.8865-102.511Q25.5282-102.511 20.8061-97.7096Q16.084-92.9084 16.084-83.4971ZM24.7329 12.9074L24.7329-83.3363Q24.7329-88.4257 27.4108-91.1438Q30.0887-93.8618 35.364-93.8618L101.655-93.8618Q106.878-93.8618 109.57-91.1438Q112.262-88.4257 112.262-83.3363L112.262 12.9074Q112.262 17.9968 109.57 20.7149Q106.878 23.433 101.655 23.433L35.364 23.433Q30.0887 23.433 27.4108 20.7149Q24.7329 17.9968 24.7329 12.9074Z"/>
  </g>
  <g id="Light-L" transform="matrix(1 0 0 1 1085.41 1556)">
   <path d="M41.5672-72.567L95.0999-72.567Q96.2483-72.567 97.0507-73.3694Q97.8531-74.1718 97.8531-75.3543Q97.8531-76.4685 97.0507-77.2478Q96.2483-78.027 95.0999-78.027L41.5672-78.027Q40.3384-78.027 39.5425-77.2478Q38.7467-76.4685 38.7467-75.3543Q38.7467-74.1718 39.5425-73.3694Q40.3384-72.567 41.5672-72.567ZM41.5672-55.018L74.9231-55.018Q76.1519-55.018 76.9311-55.8139Q77.7104-56.6098 77.7104-57.7581Q77.7104-58.8732 76.9311-59.6524Q76.1519-60.4317 74.9231-60.4317L41.5672-60.4317Q40.3384-60.4317 39.5425-59.6524Q38.7467-58.8732 38.7467-57.7581Q38.7467-56.6098 39.5425-55.8139Q40.3384-55.018 41.5672-55.018ZM42.6257 13.4616L92.8625 13.4616Q101.213 13.4616 101.213 5.15731L101.213-34.5791Q101.213-42.8827 92.8625-42.8827L42.6257-42.8827Q34.2418-42.8827 34.2418-34.5791L34.2418 5.15731Q34.2418 13.4616 42.6257 13.4616ZM16.084 13.7936Q16.084 22.6848 20.5962 27.2307Q25.1085 31.7767 33.9323 31.7767L101.489 31.7767Q110.359 31.7767 114.865 27.2307Q119.37 22.6848 119.37 13.7936L119.37-84.1461Q119.37-93.004 114.865-97.5666Q110.359-102.129 101.489-102.129L33.9323-102.129Q25.1085-102.129 20.5962-97.5666Q16.084-93.004 16.084-84.1461ZM22.7099 13.6328L22.7099-83.9853Q22.7099-89.59 25.6263-92.5466Q28.5428-95.5033 34.2953-95.5033L101.159-95.5033Q106.878-95.5033 109.818-92.5466Q112.758-89.59 112.758-83.9853L112.758 13.6328Q112.758 19.2375 109.818 22.1941Q106.878 25.1508 101.159 25.1508L34.2953 25.1508Q28.5428 25.1508 25.6263 22.1941Q22.7099 19.2375 22.7099 13.6328Z"/>
  </g>
  <g id="Thin-L" transform="matrix(1 0 0 1 789.73 1556)">
   <path d="M39.043-74.2078L94.6457-74.2078Q95.4153-74.2078 95.9779-74.7704Q96.5405-75.333 96.5405-76.1117Q96.5405-76.8723 95.9779-77.3992Q95.4153-77.9261 94.6457-77.9261L39.043-77.9261Q38.193-77.9261 37.6621-77.3992Q37.1313-76.8723 37.1313-76.1117Q37.1313-75.333 37.6621-74.7704Q38.193-74.2078 39.043-74.2078ZM39.043-57.2139L75.1249-57.2139Q75.975-57.2139 76.5019-57.7448Q77.0288-58.2756 77.0288-59.0453Q77.0288-59.8071 76.5019-60.334Q75.975-60.8609 75.1249-60.8609L39.043-60.8609Q38.193-60.8609 37.6621-60.334Q37.1313-59.8071 37.1313-59.0453Q37.1313-58.2756 37.6621-57.7448Q38.193-57.2139 39.043-57.2139ZM40.152 15.9353L93.2412 15.9353Q101.541 15.9353 101.541 7.70653L101.541-35.6394Q101.541-43.867 93.2412-43.867L40.152-43.867Q31.844-43.867 31.844-35.6394L31.844 7.70653Q31.844 15.9353 40.152 15.9353ZM16.084 14.7529Q16.084 22.8866 20.3187 27.1298Q24.5534 31.3729 32.6702 31.3729L100.706 31.3729Q108.896 31.3729 113.098 27.1298Q117.3 22.8866 117.3 14.7529L117.3-85.0045Q117.3-93.1304 113.098-97.3774Q108.896-101.624 100.706-101.624L32.6702-101.624Q24.5534-101.624 20.3187-97.3774Q16.084-93.1304 16.084-85.0045ZM20.0343 14.5921L20.0343-84.8436Q20.0343-91.1298 23.2662-94.402Q26.4982-97.6742 32.8818-97.6742L100.502-97.6742Q106.878-97.6742 110.146-94.402Q113.415-91.1298 113.415-84.8436L113.415 14.5921Q113.415 20.8783 110.146 24.1505Q106.878 27.4227 100.502 27.4227L32.8818 27.4227Q26.4982 27.4227 23.2662 24.1505Q20.0343 20.8783 20.0343 14.5921Z"/>
  </g>
  <g id="Ultralight-L" transform="matrix(1 0 0 1 493.549 1556)">
   <path d="M37.7501-75.0482L94.413-75.0482Q94.9887-75.0482 95.4285-75.488Q95.8682-75.9277 95.8682-76.4997Q95.8682-77.0791 95.4285-77.4767Q94.9887-77.8744 94.413-77.8744L37.7501-77.8744Q37.094-77.8744 36.699-77.4767Q36.3039-77.0791 36.3039-76.4997Q36.3039-75.9277 36.699-75.488Q37.094-75.0482 37.7501-75.0482ZM37.7501-58.3387L75.2283-58.3387Q75.8844-58.3387 76.2821-58.7338Q76.6798-59.1288 76.6798-59.7045Q76.6798-60.2854 76.2821-60.683Q75.8844-61.0807 75.2283-61.0807L37.7501-61.0807Q37.094-61.0807 36.699-60.683Q36.3039-60.2854 36.3039-59.7045Q36.3039-59.1288 36.699-58.7338Q37.094-58.3387 37.7501-58.3387ZM38.8849 17.2024L93.4352 17.2024Q101.71 17.2024 101.71 9.01223L101.71-36.1824Q101.71-44.3712 93.4352-44.3712L38.8849-44.3712Q30.6158-44.3712 30.6158-36.1824L30.6158 9.01223Q30.6158 17.2024 38.8849 17.2024ZM16.084 15.2443Q16.084 22.99 20.1765 27.0781Q24.269 31.1661 32.0237 31.1661L100.305 31.1661Q108.146 31.1661 112.193 27.0781Q116.24 22.99 116.24 15.2443L116.24-85.4441Q116.24-93.1951 112.193-97.2805Q108.146-101.366 100.305-101.366L32.0237-101.366Q24.269-101.366 20.1765-97.2805Q16.084-93.1951 16.084-85.4441ZM18.6638 15.0834L18.6638-85.2833Q18.6638-91.9186 22.0574-95.3524Q25.451-98.7862 32.1578-98.7862L100.166-98.7862Q106.878-98.7862 110.314-95.3524Q113.751-91.9186 113.751-85.2833L113.751 15.0834Q113.751 21.7187 110.314 25.1525Q106.878 28.5863 100.166 28.5863L32.1578 28.5863Q25.451 28.5863 22.0574 25.1525Q18.6638 21.7187 18.6638 15.0834Z"/>
  </g>
  <g id="Black-M" transform="matrix(1 0 0 1 2875.44 1126)">
   <path d="M43.0476-57.5018L73.1927-57.5018Q74.687-57.5018 75.684-58.5273Q76.6809-59.5528 76.6809-61.0527Q76.6809-62.4844 75.684-63.4815Q74.687-64.4786 73.1927-64.4786L43.0476-64.4786Q41.491-64.4786 40.4911-63.4815Q39.4913-62.4844 39.4913-61.0527Q39.4913-59.5528 40.4911-58.5273Q41.491-57.5018 43.0476-57.5018ZM43.0476-44.188L60.3235-44.188Q61.8231-44.188 62.8202-45.2164Q63.8173-46.2448 63.8173-47.7392Q63.8173-49.1709 62.8202-50.168Q61.8231-51.1651 60.3235-51.1651L43.0476-51.1651Q41.491-51.1651 40.4911-50.168Q39.4913-49.1709 39.4913-47.7392Q39.4913-46.2448 40.4911-45.2164Q41.491-44.188 43.0476-44.188ZM43.5663-4.73728L72.5389-4.73728Q77.9966-4.73728 77.9966-10.1953L77.9966-32.3934Q77.9966-37.8514 72.5389-37.8514L43.5663-37.8514Q37.9889-37.8514 37.9889-32.3934L37.9889-10.1953Q37.9889-4.73728 43.5663-4.73728ZM12.4609 0.735694Q12.4609 9.80402 17.5 14.8486Q22.5391 19.8932 31.5964 19.8932L84.3265 19.8932Q93.3835 19.8932 98.4255 14.8486Q103.467 9.80402 103.467 0.735694L103.467-71.1439Q103.467-80.2068 98.4255-85.2541Q93.3835-90.3014 84.3265-90.3014L31.5964-90.3014Q22.5391-90.3014 17.5-85.2541Q12.4609-80.2068 12.4609-71.1439ZM29.7989-1.90115L29.7989-68.5071Q29.7989-70.7791 30.8314-71.8713Q31.8639-72.9634 34.2662-72.9634L81.6622-72.9634Q84.1161-72.9634 85.12-71.8713Q86.1238-70.7791 86.1238-68.5071L86.1238-1.90115Q86.1238 0.313729 85.12 1.43447Q84.1161 2.55522 81.6622 2.55522L34.2662 2.55522Q31.8639 2.55522 30.8314 1.43447Q29.7989 0.313729 29.7989-1.90115Z"/>
  </g>
  <g id="Heavy-M" transform="matrix(1 0 0 1 2579.77 1126)">
   <path d="M41.0941-58.6786L73.4161-58.6786Q74.8587-58.6786 75.8246-59.6664Q76.7905-60.6541 76.7905-62.1131Q76.7905-63.4955 75.8246-64.4603Q74.8587-65.4251 73.4161-65.4251L41.0941-65.4251Q39.5893-65.4251 38.6163-64.4603Q37.6433-63.4955 37.6433-62.1131Q37.6433-60.6541 38.6163-59.6664Q39.5893-58.6786 41.0941-58.6786ZM41.0941-45.1651L59.7376-45.1651Q61.1988-45.1651 62.1636-46.1599Q63.1284-47.1547 63.1284-48.5972Q63.1284-49.9797 62.1636-50.9445Q61.1988-51.9093 59.7376-51.9093L41.0941-51.9093Q39.5893-51.9093 38.6163-50.9445Q37.6433-49.9797 37.6433-48.5972Q37.6433-47.1547 38.6163-46.1599Q39.5893-45.1651 41.0941-45.1651ZM41.6719-3.62432L72.3077-3.62432Q78.0164-3.62432 78.0164-9.3307L78.0164-32.6894Q78.0164-38.3957 72.3077-38.3957L41.6719-38.3957Q35.8596-38.3957 35.8596-32.6894L35.8596-9.3307Q35.8596-3.62432 41.6719-3.62432ZM12.4609 0.981088Q12.4609 9.71667 17.2024 14.4746Q21.9439 19.2324 30.6466 19.2324L83.1692 19.2324Q91.8743 19.2324 96.6228 14.4746Q101.371 9.71667 101.371 0.981088L101.371-71.406Q101.371-80.1252 96.6228-84.8913Q91.8743-89.6574 83.1692-89.6574L30.6466-89.6574Q21.9439-89.6574 17.2024-84.8913Q12.4609-80.1252 12.4609-71.406ZM27.5605-1.06287L27.5605-69.3621Q27.5605-71.9591 28.8069-73.2584Q30.0533-74.5578 32.7891-74.5578L81.0432-74.5578Q83.8062-74.5578 85.0319-73.2584Q86.2576-71.9591 86.2576-69.3621L86.2576-1.06287Q86.2576 1.49054 85.0319 2.81168Q83.8062 4.13282 81.0432 4.13282L32.7891 4.13282Q30.0533 4.13282 28.8069 2.81168Q27.5605 1.49054 27.5605-1.06287Z"/>
  </g>
  <g id="Bold-M" transform="matrix(1 0 0 1 2284.23 1126)">
   <path d="M38.9089-59.9951L73.6661-59.9951Q75.0507-59.9951 75.9819-60.9405Q76.9131-61.886 76.9131-63.2992Q76.9131-64.6266 75.9819-65.5552Q75.0507-66.4839 73.6661-66.4839L38.9089-66.4839Q37.462-66.4839 36.5191-65.5552Q35.5761-64.6266 35.5761-63.2992Q35.5761-61.886 36.5191-60.9405Q37.462-59.9951 38.9089-59.9951ZM38.9089-46.258L59.0822-46.258Q60.5005-46.258 61.4291-47.2152Q62.3578-48.1725 62.3578-49.557Q62.3578-50.8844 61.4291-51.8131Q60.5005-52.7418 59.0822-52.7418L38.9089-52.7418Q37.462-52.7418 36.5191-51.8131Q35.5761-50.8844 35.5761-49.557Q35.5761-48.1725 36.5191-47.2152Q37.462-46.258 38.9089-46.258ZM39.5526-2.37932L72.0492-2.37932Q78.0385-2.37932 78.0385-8.36354L78.0385-33.0206Q78.0385-39.0047 72.0492-39.0047L39.5526-39.0047Q33.4776-39.0047 33.4776-33.0206L33.4776-8.36354Q33.4776-2.37932 39.5526-2.37932ZM12.4609 1.2556Q12.4609 9.61896 16.8695 14.0561Q21.278 18.4933 29.5842 18.4933L81.8747 18.4933Q90.186 18.4933 94.6063 14.0561Q99.0265 9.61896 99.0265 1.2556L99.0265-71.6993Q99.0265-80.034 94.6063-84.4855Q90.186-88.937 81.8747-88.937L29.5842-88.937Q21.278-88.937 16.8695-84.4855Q12.4609-80.034 12.4609-71.6993ZM25.0566-0.125134L25.0566-70.3185Q25.0566-73.2792 26.5423-74.8102Q28.0279-76.3413 31.1366-76.3413L80.3508-76.3413Q83.4595-76.3413 84.9335-74.8102Q86.4074-73.2792 86.4074-70.3185L86.4074-0.125134Q86.4074 2.80697 84.9335 4.35228Q83.4595 5.89759 80.3508 5.89759L31.1366 5.89759Q28.0279 5.89759 26.5423 4.35228Q25.0566 2.80697 25.0566-0.125134Z"/>
  </g>
  <g id="Semibold-M" transform="matrix(1 0 0 1 1988.33 1126)">
   <path d="M37.4023-60.9026L73.8385-60.9026Q75.183-60.9026 76.0903-61.819Q76.9976-62.7353 76.9976-64.117Q76.9976-65.4063 76.0903-66.31Q75.183-67.2138 73.8385-67.2138L37.4023-67.2138Q35.9955-67.2138 35.0732-66.31Q34.151-65.4063 34.151-64.117Q34.151-62.7353 35.0732-61.819Q35.9955-60.9026 37.4023-60.9026ZM37.4023-47.0115L58.6303-47.0115Q60.019-47.0115 60.9228-47.9428Q61.8266-48.8741 61.8266-50.2187Q61.8266-51.5081 60.9228-52.4119Q60.019-53.3156 58.6303-53.3156L37.4023-53.3156Q35.9955-53.3156 35.0732-52.4119Q34.151-51.5081 34.151-50.2187Q34.151-48.8741 35.0732-47.9428Q35.9955-47.0115 37.4023-47.0115ZM38.0916-1.52102L71.8709-1.52102Q78.0537-1.52102 78.0537-7.69678L78.0537-33.2489Q78.0537-39.4245 71.8709-39.4245L38.0916-39.4245Q31.8355-39.4245 31.8355-33.2489L31.8355-7.69678Q31.8355-1.52102 38.0916-1.52102ZM12.4609 1.44484Q12.4609 9.55159 16.64 13.7677Q20.819 17.9838 28.8517 17.9838L80.9823 17.9838Q89.0221 17.9838 93.216 13.7677Q97.41 9.55159 97.41 1.44484L97.41-71.9014Q97.41-79.9712 93.216-84.2057Q89.0221-88.4403 80.9823-88.4403L28.8517-88.4403Q20.819-88.4403 16.64-84.2057Q12.4609-79.9712 12.4609-71.9014ZM23.3305 0.521338L23.3305-70.9779Q23.3305-74.1892 24.981-75.88Q26.6316-77.5708 29.9974-77.5708L79.8735-77.5708Q83.2205-77.5708 84.8656-75.88Q86.5106-74.1892 86.5106-70.9779L86.5106 0.521338Q86.5106 3.71451 84.8656 5.41437Q83.2205 7.11422 79.8735 7.11422L29.9974 7.11422Q26.6316 7.11422 24.981 5.41437Q23.3305 3.71451 23.3305 0.521338Z"/>
  </g>
  <g id="Medium-M" transform="matrix(1 0 0 1 1692.23 1126)">
   <path d="M36.26-61.5907L73.9692-61.5907Q75.2834-61.5907 76.1726-62.485Q77.0617-63.3793 77.0617-64.737Q77.0617-65.9975 76.1726-66.8824Q75.2834-67.7673 73.9692-67.7673L36.26-67.7673Q34.8835-67.7673 33.9769-66.8824Q33.0704-65.9975 33.0704-64.737Q33.0704-63.3793 33.9769-62.485Q34.8835-61.5907 36.26-61.5907ZM36.26-47.5828L58.2877-47.5828Q59.654-47.5828 60.5389-48.4945Q61.4237-49.4062 61.4237-50.7204Q61.4237-51.981 60.5389-52.8659Q59.654-53.7508 58.2877-53.7508L36.26-53.7508Q34.8835-53.7508 33.9769-52.8659Q33.0704-51.981 33.0704-50.7204Q33.0704-49.4062 33.9769-48.4945Q34.8835-47.5828 36.26-47.5828ZM36.9838-0.87022L71.7358-0.87022Q78.0653-0.87022 78.0653-7.19122L78.0653-33.422Q78.0653-39.7428 71.7358-39.7428L36.9838-39.7428Q30.5903-39.7428 30.5903-33.422L30.5903-7.19122Q30.5903-0.87022 36.9838-0.87022ZM12.4609 1.58833Q12.4609 9.50052 16.4659 13.549Q20.471 17.5974 28.2963 17.5974L80.3056 17.5974Q88.1396 17.5974 92.1619 13.549Q96.1843 9.50052 96.1843 1.58833L96.1843-72.0547Q96.1843-79.9235 92.1619-83.9936Q88.1396-88.0637 80.3056-88.0637L28.2963-88.0637Q20.471-88.0637 16.4659-83.9936Q12.4609-79.9235 12.4609-72.0547ZM22.0216 1.01152L22.0216-71.4779Q22.0216-74.8793 23.7972-76.6912Q25.5728-78.5031 29.1337-78.5031L79.5115-78.5031Q83.0393-78.5031 84.8141-76.6912Q86.5889-74.8793 86.5889-71.4779L86.5889 1.01152Q86.5889 4.40265 84.8141 6.21968Q83.0393 8.03671 79.5115 8.03671L29.1337 8.03671Q25.5728 8.03671 23.7972 6.21968Q22.0216 4.40265 22.0216 1.01152Z"/>
  </g>
  <g id="Regular-M" transform="matrix(1 0 0 1 1396.32 1126)">
   <path d="M34.7701-62.4883L74.1396-62.4883Q75.4143-62.4883 76.2798-63.3538Q77.1453-64.2193 77.1453-65.5458Q77.1453-66.7687 76.2798-67.6289Q75.4143-68.4892 74.1396-68.4892L34.7701-68.4892Q33.4331-68.4892 32.547-67.6289Q31.6609-66.7687 31.6609-65.5458Q31.6609-64.2193 32.547-63.3538Q33.4331-62.4883 34.7701-62.4883ZM34.7701-48.328L57.8408-48.328Q59.1778-48.328 60.0381-49.214Q60.8983-50.1001 60.8983-51.3748Q60.8983-52.5979 60.0381-53.4581Q59.1778-54.3184 57.8408-54.3184L34.7701-54.3184Q33.4331-54.3184 32.547-53.4581Q31.6609-52.5979 31.6609-51.3748Q31.6609-50.1001 32.547-49.214Q33.4331-48.328 34.7701-48.328ZM35.5388-0.0213542L71.5595-0.0213542Q78.0804-0.0213542 78.0804-6.53179L78.0804-33.6478Q78.0804-40.158 71.5595-40.158L35.5388-40.158Q28.9663-40.158 28.9663-33.6478L28.9663-6.53179Q28.9663-0.0213542 35.5388-0.0213542ZM12.4609 1.7755Q12.4609 9.43389 16.239 13.2637Q20.017 17.0934 27.5719 17.0934L79.4229 17.0934Q86.9885 17.0934 90.787 13.2637Q94.5855 9.43389 94.5855 1.7755L94.5855-72.2546Q94.5855-79.8613 90.787-83.7169Q86.9885-87.5725 79.4229-87.5725L27.5719-87.5725Q20.017-87.5725 16.239-83.7169Q12.4609-79.8613 12.4609-72.2546ZM20.3144 1.65089L20.3144-72.13Q20.3144-75.7793 22.2531-77.7492Q24.1919-79.7191 28.007-79.7191L79.0395-79.7191Q82.8029-79.7191 84.747-77.7492Q86.691-75.7793 86.691-72.13L86.691 1.65089Q86.691 5.30021 84.747 7.27009Q82.8029 9.23997 79.0395 9.23997L28.007 9.23997Q24.1919 9.23997 22.2531 7.27009Q20.3144 5.30021 20.3144 1.65089Z"/>
  </g>
  <g id="Light-M" transform="matrix(1 0 0 1 1100.31 1126)">
   <path d="M33.059-63.6006L73.8317-63.6006Q74.8497-63.6006 75.5526-64.3035Q76.2555-65.0064 76.2555-66.0593Q76.2555-67.0423 75.5526-67.7315Q74.8497-68.4207 73.8317-68.4207L33.059-68.4207Q31.9787-68.4207 31.2723-67.7315Q30.5659-67.0423 30.5659-66.0593Q30.5659-65.0064 31.2723-64.3035Q31.9787-63.6006 33.059-63.6006ZM33.059-49.8166L57.9777-49.8166Q59.058-49.8166 59.7471-50.523Q60.4363-51.2294 60.4363-52.2473Q60.4363-53.2309 59.7471-53.9201Q59.058-54.6093 57.9777-54.6093L33.059-54.6093Q31.9787-54.6093 31.2723-53.9201Q30.5659-53.2309 30.5659-52.2473Q30.5659-51.2294 31.2723-50.523Q31.9787-49.8166 33.059-49.8166ZM33.8619 1.65554L71.8162 1.65554Q78.3029 1.65554 78.3029-4.80372L78.3029-34.3665Q78.3029-40.8253 71.8162-40.8253L33.8619-40.8253Q27.3408-40.8253 27.3408-34.3665L27.3408-4.80372Q27.3408 1.65554 33.8619 1.65554ZM12.4609 2.42579Q12.4609 9.57073 16.0508 13.1952Q19.6407 16.8198 26.7163 16.8198L78.8925 16.8198Q85.9961 16.8198 89.5892 13.1952Q93.1823 9.57073 93.1823 2.42579L93.1823-72.8365Q93.1823-79.947 89.5892-83.5887Q85.9961-87.2304 78.8925-87.2304L26.7163-87.2304Q19.6407-87.2304 16.0508-83.5887Q12.4609-79.947 12.4609-72.8365ZM18.5007 2.30118L18.5007-72.7119Q18.5007-76.8232 20.6533-79.0069Q22.8059-81.1907 27.0488-81.1907L78.5944-81.1907Q82.8029-81.1907 84.9695-79.0069Q87.136-76.8232 87.136-72.7119L87.136 2.30118Q87.136 6.41249 84.9695 8.59626Q82.8029 10.78 78.5944 10.78L27.0488 10.78Q22.8059 10.78 20.6533 8.59626Q18.5007 6.41249 18.5007 2.30118Z"/>
  </g>
  <g id="Thin-M" transform="matrix(1 0 0 1 804.528 1126)">
   <path d="M30.7959-65.0717L73.4245-65.0717Q74.103-65.0717 74.5909-65.5595Q75.0787-66.0474 75.0787-66.7383Q75.0787-67.4043 74.5909-67.8673Q74.103-68.3302 73.4245-68.3302L30.7959-68.3302Q30.0551-68.3302 29.5864-67.8673Q29.1176-67.4043 29.1176-66.7383Q29.1176-66.0474 29.5864-65.5595Q30.0551-65.0717 30.7959-65.0717ZM30.7959-51.7853L58.1587-51.7853Q58.8994-51.7853 59.3624-52.2541Q59.8253-52.7229 59.8253-53.4013Q59.8253-54.0682 59.3624-54.5311Q58.8994-54.9941 58.1587-54.9941L30.7959-54.9941Q30.0551-54.9941 29.5864-54.5311Q29.1176-54.0682 29.1176-53.4013Q29.1176-52.7229 29.5864-52.2541Q30.0551-51.7853 30.7959-51.7853ZM31.6441 3.87337L72.1557 3.87337Q78.5972 3.87337 78.5972-2.51821L78.5972-35.317Q78.5972-41.7078 72.1557-41.7078L31.6441-41.7078Q25.1911-41.7078 25.1911-35.317L25.1911-2.51821Q25.1911 3.87337 31.6441 3.87337ZM12.4609 3.28585Q12.4609 9.75172 15.8019 13.1048Q19.1429 16.4578 25.5848 16.4578L78.191 16.4578Q84.6835 16.4578 88.005 13.1048Q91.3265 9.75172 91.3265 3.28585L91.3265-73.606Q91.3265-80.0603 88.005-83.4191Q84.6835-86.778 78.191-86.778L25.5848-86.778Q19.1429-86.778 15.8019-83.4191Q12.4609-80.0603 12.4609-73.606ZM16.1019 3.16124L16.1019-73.4814Q16.1019-78.2038 18.5374-80.6704Q20.9729-83.1371 25.7815-83.1371L78.0058-83.1371Q82.8029-83.1371 85.2638-80.6704Q87.7246-78.2038 87.7246-73.4814L87.7246 3.16124Q87.7246 7.88357 85.2638 10.3502Q82.8029 12.8169 78.0058 12.8169L25.7815 12.8169Q20.9729 12.8169 18.5374 10.3502Q16.1019 7.88357 16.1019 3.16124Z"/>
  </g>
  <g id="Ultralight-M" transform="matrix(1 0 0 1 508.292 1126)">
   <path d="M29.6368-65.8251L73.2159-65.8251Q73.7205-65.8251 74.0982-66.2029Q74.476-66.5806 74.476-67.0861Q74.476-67.5897 74.0982-67.9368Q73.7205-68.2839 73.2159-68.2839L29.6368-68.2839Q29.0699-68.2839 28.7229-67.9368Q28.3758-67.5897 28.3758-67.0861Q28.3758-66.5806 28.7229-66.2029Q29.0699-65.8251 29.6368-65.8251ZM29.6368-52.7937L58.2514-52.7937Q58.8182-52.7937 59.1653-53.1408Q59.5124-53.4878 59.5124-53.9924Q59.5124-54.497 59.1653-54.8441Q58.8182-55.1912 58.2514-55.1912L29.6368-55.1912Q29.0699-55.1912 28.7229-54.8441Q28.3758-54.497 28.3758-53.9924Q28.3758-53.4878 28.7229-53.1408Q29.0699-52.7937 29.6368-52.7937ZM30.5081 5.00934L72.3296 5.00934Q78.7479 5.00934 78.7479-1.34759L78.7479-35.8039Q78.7479-42.1598 72.3296-42.1598L30.5081-42.1598Q24.09-42.1598 24.09-35.8039L24.09-1.34759Q24.09 5.00934 30.5081 5.00934ZM12.4609 3.72637Q12.4609 9.84442 15.6745 13.0584Q18.888 16.2724 25.0052 16.2724L77.8317 16.2724Q84.0113 16.2724 87.1936 13.0584Q90.3759 9.84442 90.3759 3.72637L90.3759-74.0002Q90.3759-80.1183 87.1936-83.3323Q84.0113-86.5462 77.8317-86.5462L25.0052-86.5462Q18.888-86.5462 15.6745-83.3323Q12.4609-80.1183 12.4609-74.0002ZM14.8732 3.60176L14.8732-73.8756Q14.8732-78.9109 17.4536-81.5224Q20.034-84.134 25.1325-84.134L77.7044-84.134Q82.8029-84.134 85.4145-81.5224Q88.0261-78.9109 88.0261-73.8756L88.0261 3.60176Q88.0261 8.63705 85.4145 11.2486Q82.8029 13.8601 77.7044 13.8601L25.1325 13.8601Q20.034 13.8601 17.4536 11.2486Q14.8732 8.63705 14.8732 3.60176Z"/>
  </g>
  <g id="Black-S" transform="matrix(1 0 0 1 2887.7 696)">
   <path d="M34.2285-52.3926L57.2754-52.3926Q58.4473-52.3926 59.2285-53.1982Q60.0098-54.0039 60.0098-55.1758Q60.0098-56.2988 59.2285-57.0801Q58.4473-57.8613 57.2754-57.8613L34.2285-57.8613Q33.0078-57.8613 32.2266-57.0801Q31.4453-56.2988 31.4453-55.1758Q31.4453-54.0039 32.2266-53.1982Q33.0078-52.3926 34.2285-52.3926ZM34.2285-42.041L47.4609-42.041Q48.6328-42.041 49.4141-42.8467Q50.1953-43.6523 50.1953-44.8242Q50.1953-45.9473 49.4141-46.7285Q48.6328-47.5098 47.4609-47.5098L34.2285-47.5098Q33.0078-47.5098 32.2266-46.7285Q31.4453-45.9473 31.4453-44.8242Q31.4453-43.6523 32.2266-42.8467Q33.0078-42.041 34.2285-42.041ZM34.6191-11.5723L56.9336-11.5723Q61.1328-11.5723 61.1328-15.7715L61.1328-32.959Q61.1328-37.1582 56.9336-37.1582L34.6191-37.1582Q30.3223-37.1582 30.3223-32.959L30.3223-15.7715Q30.3223-11.5723 34.6191-11.5723ZM9.76562-7.08008Q9.76562 0.0976562 13.7939 4.12598Q17.8223 8.1543 25 8.1543L66.4062 8.1543Q73.584 8.1543 77.6123 4.12598Q81.6406 0.0976562 81.6406-7.08008L81.6406-63.3301Q81.6406-70.5078 77.6123-74.5361Q73.584-78.5645 66.4062-78.5645L25-78.5645Q17.8223-78.5645 13.7939-74.5361Q9.76562-70.5078 9.76562-63.3301ZM23.9258-9.32617L23.9258-61.084Q23.9258-62.793 24.6826-63.5986Q25.4395-64.4043 27.2461-64.4043L64.1602-64.4043Q66.0156-64.4043 66.748-63.5986Q67.4805-62.793 67.4805-61.084L67.4805-9.32617Q67.4805-7.66602 66.748-6.83594Q66.0156-6.00586 64.1602-6.00586L27.2461-6.00586Q25.4395-6.00586 24.6826-6.83594Q23.9258-7.66602 23.9258-9.32617Z"/>
  </g>
  <g id="Heavy-S" transform="matrix(1 0 0 1 2591.79 696)">
   <path d="M32.7764-53.2569L57.5059-53.2569Q58.6662-53.2569 59.4417-54.0511Q60.2172-54.8452 60.2172-56.0171Q60.2172-57.1286 59.4417-57.9041Q58.6662-58.6796 57.5059-58.6796L32.7764-58.6796Q31.5673-58.6796 30.786-57.9041Q30.0048-57.1286 30.0048-56.0171Q30.0048-54.8452 30.786-54.0511Q31.5673-53.2569 32.7764-53.2569ZM32.7764-42.6864L46.9423-42.6864Q48.1142-42.6864 48.8897-43.4863Q49.6652-44.2862 49.6652-45.4465Q49.6652-46.5581 48.8897-47.3336Q48.1142-48.109 46.9423-48.109L32.7764-48.109Q31.5673-48.109 30.786-47.3336Q30.0048-46.5581 30.0048-45.4465Q30.0048-44.2862 30.786-43.4863Q31.5673-42.6864 32.7764-42.6864ZM33.2132-10.8347L56.7031-10.8347Q61.1213-10.8347 61.1213-15.2529L61.1213-33.1203Q61.1213-37.5385 56.7031-37.5385L33.2132-37.5385Q28.7088-37.5385 28.7088-33.1203L28.7088-15.2529Q28.7088-10.8347 33.2132-10.8347ZM9.76562-6.95331Q9.76562 0.00546053 13.5635 3.81482Q17.3613 7.62417 24.297 7.62417L65.4843 7.62417Q72.42 7.62417 76.2236 3.81482Q80.0272 0.00546053 80.0272-6.95331L80.0272-63.4799Q80.0272-70.4271 76.2236-74.2423Q72.42-78.0574 65.4843-78.0574L24.297-78.0574Q17.3613-78.0574 13.5635-74.2423Q9.76562-70.4271 9.76562-63.4799ZM22.2432-8.69233L22.2432-61.7409Q22.2432-63.6688 23.1556-64.6243Q24.068-65.5798 26.1052-65.5798L63.6877-65.5798Q65.7506-65.5798 66.6443-64.6243Q67.5381-63.6688 67.5381-61.7409L67.5381-8.69233Q67.5381-6.80168 66.6443-5.82755Q65.7506-4.85341 63.6877-4.85341L26.1052-4.85341Q24.068-4.85341 23.1556-5.82755Q22.2432-6.80168 22.2432-8.69233Z"/>
  </g>
  <g id="Bold-S" transform="matrix(1 0 0 1 2295.98 696)">
   <path d="M31.1523-54.2236L57.7637-54.2236Q58.9111-54.2236 59.6802-55.0049Q60.4492-55.7861 60.4492-56.958Q60.4492-58.0566 59.6802-58.8257Q58.9111-59.5947 57.7637-59.5947L31.1523-59.5947Q29.9561-59.5947 29.1748-58.8257Q28.3936-58.0566 28.3936-56.958Q28.3936-55.7861 29.1748-55.0049Q29.9561-54.2236 31.1523-54.2236ZM31.1523-43.4082L46.3623-43.4082Q47.5342-43.4082 48.3032-44.2017Q49.0723-44.9951 49.0723-46.1426Q49.0723-47.2412 48.3032-48.0103Q47.5342-48.7793 46.3623-48.7793L31.1523-48.7793Q29.9561-48.7793 29.1748-48.0103Q28.3936-47.2412 28.3936-46.1426Q28.3936-44.9951 29.1748-44.2017Q29.9561-43.4082 31.1523-43.4082ZM31.6406-10.0098L56.4453-10.0098Q61.1084-10.0098 61.1084-14.6729L61.1084-33.3008Q61.1084-37.9639 56.4453-37.9639L31.6406-37.9639Q26.9043-37.9639 26.9043-33.3008L26.9043-14.6729Q26.9043-10.0098 31.6406-10.0098ZM9.76562-6.81152Q9.76562-0.0976562 13.3057 3.4668Q16.8457 7.03125 23.5107 7.03125L64.4531 7.03125Q71.1182 7.03125 74.6704 3.4668Q78.2227-0.0976562 78.2227-6.81152L78.2227-63.6475Q78.2227-70.3369 74.6704-73.9136Q71.1182-77.4902 64.4531-77.4902L23.5107-77.4902Q16.8457-77.4902 13.3057-73.9136Q9.76562-70.3369 9.76562-63.6475ZM20.3613-7.9834L20.3613-62.4756Q20.3613-64.6484 21.4478-65.7715Q22.5342-66.8945 24.8291-66.8945L63.1592-66.8945Q65.4541-66.8945 66.5283-65.7715Q67.6025-64.6484 67.6025-62.4756L67.6025-7.9834Q67.6025-5.83496 66.5283-4.69971Q65.4541-3.56445 63.1592-3.56445L24.8291-3.56445Q22.5342-3.56445 21.4478-4.69971Q20.3613-5.83496 20.3613-7.9834Z"/>
  </g>
  <g id="Semibold-S" transform="matrix(1 0 0 1 1999.89 696)">
   <path d="M30.0326-54.8901L57.9414-54.8901Q59.08-54.8901 59.8446-55.6625Q60.6092-56.4349 60.6092-57.6067Q60.6092-58.6965 59.8446-59.4611Q59.08-60.2257 57.9414-60.2257L30.0326-60.2257Q28.8452-60.2257 28.064-59.4611Q27.2827-58.6965 27.2827-57.6067Q27.2827-56.4349 28.064-55.6625Q28.8452-54.8901 30.0326-54.8901ZM30.0326-43.9059L45.9624-43.9059Q47.1343-43.9059 47.8989-44.6949Q48.6635-45.4839 48.6635-46.6225Q48.6635-47.7122 47.8989-48.4768Q47.1343-49.2414 45.9624-49.2414L30.0326-49.2414Q28.8452-49.2414 28.064-48.4768Q27.2827-47.7122 27.2827-46.6225Q27.2827-45.4839 28.064-44.6949Q28.8452-43.9059 30.0326-43.9059ZM30.5564-9.44102L56.2676-9.44102Q61.0995-9.44102 61.0995-14.2729L61.0995-33.4252Q61.0995-38.2571 56.2676-38.2571L30.5564-38.2571Q25.6602-38.2571 25.6602-33.4252L25.6602-14.2729Q25.6602-9.44102 30.5564-9.44102ZM9.76562-6.71377Q9.76562-0.16875 13.1279 3.22686Q16.4902 6.62246 22.9687 6.62246L63.7422 6.62246Q70.2206 6.62246 73.5996 3.22686Q76.9785-0.16875 76.9785-6.71377L76.9785-63.763Q76.9785-70.2747 73.5996-73.687Q70.2206-77.0992 63.7422-77.0992L22.9687-77.0992Q16.4902-77.0992 13.1279-73.687Q9.76562-70.2747 9.76562-63.763ZM19.0639-7.49463L19.0639-62.9821Q19.0639-65.3238 20.2703-66.5624Q21.4767-67.801 23.9493-67.801L62.7948-67.801Q65.2497-67.801 66.4483-66.5624Q67.647-65.3238 67.647-62.9821L67.647-7.49463Q67.647-5.16846 66.4483-3.92212Q65.2497-2.67578 62.7948-2.67578L23.9493-2.67578Q21.4767-2.67578 20.2703-3.92212Q19.0639-5.16846 19.0639-7.49463Z"/>
  </g>
  <g id="Medium-S" transform="matrix(1 0 0 1 1703.66 696)">
   <path d="M29.1836-55.3955L58.0762-55.3955Q59.208-55.3955 59.9692-56.1611Q60.7305-56.9268 60.7305-58.0986Q60.7305-59.1816 59.9692-59.9429Q59.208-60.7041 58.0762-60.7041L29.1836-60.7041Q28.0029-60.7041 27.2217-59.9429Q26.4404-59.1816 26.4404-58.0986Q26.4404-56.9268 27.2217-56.1611Q28.0029-55.3955 29.1836-55.3955ZM29.1836-44.2832L45.6592-44.2832Q46.8311-44.2832 47.5923-45.0688Q48.3535-45.8545 48.3535-46.9863Q48.3535-48.0693 47.5923-48.8306Q46.8311-49.5918 45.6592-49.5918L29.1836-49.5918Q28.0029-49.5918 27.2217-48.8306Q26.4404-48.0693 26.4404-46.9863Q26.4404-45.8545 27.2217-45.0688Q28.0029-44.2832 29.1836-44.2832ZM29.7344-9.00977L56.1328-9.00977Q61.0928-9.00977 61.0928-13.9697L61.0928-33.5195Q61.0928-38.4795 56.1328-38.4795L29.7344-38.4795Q24.7168-38.4795 24.7168-33.5195L24.7168-13.9697Q24.7168-9.00977 29.7344-9.00977ZM9.76562-6.63965Q9.76562-0.222656 12.9932 3.04492Q16.2207 6.3125 22.5576 6.3125L63.2031 6.3125Q69.54 6.3125 72.7876 3.04492Q76.0352-0.222656 76.0352-6.63965L76.0352-63.8506Q76.0352-70.2275 72.7876-73.5151Q69.54-76.8027 63.2031-76.8027L22.5576-76.8027Q16.2207-76.8027 12.9932-73.5151Q9.76562-70.2275 9.76562-63.8506ZM18.0801-7.12402L18.0801-63.3662Q18.0801-65.8359 19.3774-67.1621Q20.6748-68.4883 23.2822-68.4883L62.5186-68.4883Q65.0947-68.4883 66.3877-67.1621Q67.6807-65.8359 67.6807-63.3662L67.6807-7.12402Q67.6807-4.66309 66.3877-3.33252Q65.0947-2.00195 62.5186-2.00195L23.2822-2.00195Q20.6748-2.00195 19.3774-3.33252Q18.0801-4.66309 18.0801-7.12402Z"/>
  </g>
  <g id="Regular-S" transform="matrix(1 0 0 1 1407.56 696)">
   <path d="M28.0762-56.0547L58.252-56.0547Q59.375-56.0547 60.1318-56.8115Q60.8887-57.5684 60.8887-58.7402Q60.8887-59.8145 60.1318-60.5713Q59.375-61.3281 58.252-61.3281L28.0762-61.3281Q26.9043-61.3281 26.123-60.5713Q25.3418-59.8145 25.3418-58.7402Q25.3418-57.5684 26.123-56.8115Q26.9043-56.0547 28.0762-56.0547ZM28.0762-44.7754L45.2637-44.7754Q46.4355-44.7754 47.1924-45.5566Q47.9492-46.3379 47.9492-47.4609Q47.9492-48.5352 47.1924-49.292Q46.4355-50.0488 45.2637-50.0488L28.0762-50.0488Q26.9043-50.0488 26.123-49.292Q25.3418-48.5352 25.3418-47.4609Q25.3418-46.3379 26.123-45.5566Q26.9043-44.7754 28.0762-44.7754ZM28.6621-8.44727L55.957-8.44727Q61.084-8.44727 61.084-13.5742L61.084-33.6426Q61.084-38.7695 55.957-38.7695L28.6621-38.7695Q23.4863-38.7695 23.4863-33.6426L23.4863-13.5742Q23.4863-8.44727 28.6621-8.44727ZM9.76562-6.54297Q9.76562-0.292969 12.8174 2.80762Q15.8691 5.9082 22.0215 5.9082L62.5 5.9082Q68.6523 5.9082 71.7285 2.80762Q74.8047-0.292969 74.8047-6.54297L74.8047-63.9648Q74.8047-70.166 71.7285-73.291Q68.6523-76.416 62.5-76.416L22.0215-76.416Q15.8691-76.416 12.8174-73.291Q9.76562-70.166 9.76562-63.9648ZM16.7969-6.64062L16.7969-63.8672Q16.7969-66.5039 18.2129-67.9443Q19.6289-69.3848 22.4121-69.3848L62.1582-69.3848Q64.8926-69.3848 66.3086-67.9443Q67.7246-66.5039 67.7246-63.8672L67.7246-6.64062Q67.7246-4.00391 66.3086-2.56348Q64.8926-1.12305 62.1582-1.12305L22.4121-1.12305Q19.6289-1.12305 18.2129-2.56348Q16.7969-4.00391 16.7969-6.64062Z"/>
  </g>
  <g id="Light-S" transform="matrix(1 0 0 1 1111.47 696)">
   <path d="M26.5625-57.0386L57.9796-57.0386Q58.8755-57.0386 59.4886-57.6516Q60.1016-58.2647 60.1016-59.1944Q60.1016-60.0566 59.4886-60.6621Q58.8755-61.2676 57.9796-61.2676L26.5625-61.2676Q25.6177-61.2676 24.9954-60.6621Q24.3731-60.0566 24.3731-59.1944Q24.3731-58.2647 24.9954-57.6516Q25.6177-57.0386 26.5625-57.0386ZM26.5625-46.0922L45.3847-46.0922Q46.3295-46.0922 46.935-46.7145Q47.5405-47.3368 47.5405-48.2328Q47.5405-49.0952 46.935-49.7007Q46.3295-50.3062 45.3847-50.3062L26.5625-50.3062Q25.6177-50.3062 24.9954-49.7007Q24.3731-49.0952 24.3731-48.2328Q24.3731-47.3368 24.9954-46.7145Q25.6177-46.0922 26.5625-46.0922ZM27.1787-6.96386L56.1841-6.96386Q61.2808-6.96386 61.2808-12.0455L61.2808-34.2784Q61.2808-39.3598 56.1841-39.3598L27.1787-39.3598Q22.0484-39.3598 22.0484-34.2784L22.0484-12.0455Q22.0484-6.96386 27.1787-6.96386ZM9.76562-5.96771Q9.76562-0.171916 12.6509 2.74709Q15.5362 5.6661 21.2646 5.6661L62.0308 5.6661Q67.7745 5.6661 70.6689 2.74709Q73.5634-0.171916 73.5634-5.96771L73.5634-64.4796Q73.5634-70.2418 70.6689-73.1776Q67.7745-76.1134 62.0308-76.1134L21.2646-76.1134Q15.5362-76.1134 12.6509-73.1776Q9.76562-70.2418 9.76562-64.4796ZM15.1924-6.06537L15.1924-64.3819Q15.1924-67.4273 16.7976-69.057Q18.4029-70.6866 21.5645-70.6866L61.7645-70.6866Q64.8926-70.6866 66.5054-69.057Q68.1183-67.4273 68.1183-64.3819L68.1183-6.06537Q68.1183-3.01997 66.5054-1.39033Q64.8926 0.239309 61.7645 0.239309L21.5645 0.239309Q18.4029 0.239309 16.7976-1.39033Q15.1924-3.01997 15.1924-6.06537Z"/>
  </g>
  <g id="Thin-S" transform="matrix(1 0 0 1 815.578 696)">
   <path d="M24.5605-58.34L57.6194-58.34Q58.2149-58.34 58.6378-58.7628Q59.0606-59.1856 59.0606-59.7952Q59.0606-60.3768 58.6378-60.7822Q58.2149-61.1875 57.6194-61.1875L24.5605-61.1875Q23.9161-61.1875 23.504-60.7822Q23.092-60.3768 23.092-59.7952Q23.092-59.1856 23.504-58.7628Q23.9161-58.34 24.5605-58.34ZM24.5605-47.8338L45.5448-47.8338Q46.1892-47.8338 46.5946-48.2459Q47-48.658 47-49.2536Q47-49.8358 46.5946-50.2412Q46.1892-50.6466 45.5448-50.6466L24.5605-50.6466Q23.9161-50.6466 23.504-50.2412Q23.092-49.8358 23.092-49.2536Q23.092-48.658 23.504-48.2459Q23.9161-47.8338 24.5605-47.8338ZM25.2168-5.00193L56.4845-5.00193Q61.5412-5.00193 61.5412-10.0237L61.5412-35.1192Q61.5412-40.1405 56.4845-40.1405L25.2168-40.1405Q20.1467-40.1405 20.1467-35.1192L20.1467-10.0237Q20.1467-5.00193 25.2168-5.00193ZM9.76562-5.20689Q9.76562-0.0118133 12.4308 2.66704Q15.096 5.34589 20.2637 5.34589L61.4102 5.34589Q66.6134 5.34589 69.2675 2.66704Q71.9217-0.0118133 71.9217-5.20689L71.9217-65.1603Q71.9217-70.342 69.2675-73.0276Q66.6134-75.7131 61.4102-75.7131L20.2637-75.7131Q15.096-75.7131 12.4308-73.0276Q9.76562-70.342 9.76562-65.1603ZM13.0704-5.30455L13.0704-65.0627Q13.0704-68.6486 14.9259-70.5285Q16.7813-72.4084 20.4434-72.4084L61.2439-72.4084Q64.8926-72.4084 66.7658-70.5285Q68.639-68.6486 68.639-65.0627L68.639-5.30455Q68.639-1.71863 66.7658 0.161251Q64.8926 2.04113 61.2439 2.04113L20.4434 2.04113Q16.7813 2.04113 14.9259 0.161251Q13.0704-1.71863 13.0704-5.30455Z"/>
  </g>
  <g id="Ultralight-S" transform="matrix(1 0 0 1 519.288 696)">
   <path d="M23.5352-59.0065L57.4348-59.0065Q57.8766-59.0065 58.202-59.3319Q58.5274-59.6573 58.5274-60.1028Q58.5274-60.5408 58.202-60.8437Q57.8766-61.1465 57.4348-61.1465L23.5352-61.1465Q23.0446-61.1465 22.7402-60.8437Q22.4358-60.5408 22.4358-60.1028Q22.4358-59.6573 22.7402-59.3319Q23.0446-59.0065 23.5352-59.0065ZM23.5352-48.7259L45.6268-48.7259Q46.1174-48.7259 46.4203-49.0303Q46.7232-49.3347 46.7232-49.7765Q46.7232-50.2151 46.4203-50.518Q46.1174-50.8209 45.6268-50.8209L23.5352-50.8209Q23.0446-50.8209 22.7402-50.518Q22.4358-50.2151 22.4358-49.7765Q22.4358-49.3347 22.7402-49.0303Q23.0446-48.7259 23.5352-48.7259ZM24.2119-3.99704L56.6383-3.99704Q61.6745-3.99704 61.6745-8.98819L61.6745-35.5499Q61.6745-40.5403 56.6383-40.5403L24.2119-40.5403Q19.1727-40.5403 19.1727-35.5499L19.1727-8.98819Q19.1727-3.99704 24.2119-3.99704ZM9.76562-4.8172Q9.76562 0.0701904 12.318 2.62604Q14.8705 5.18188 19.751 5.18188L61.0924 5.18188Q66.0187 5.18188 68.5497 2.62604Q71.0808 0.0701904 71.0808-4.8172L71.0808-65.509Q71.0808-70.3934 68.5497-72.9507Q66.0187-75.5081 61.0924-75.5081L19.751-75.5081Q14.8705-75.5081 12.318-72.9507Q9.76562-70.3934 9.76562-65.509ZM11.9835-4.91486L11.9835-65.4114Q11.9835-69.2741 13.9671-71.2822Q15.9508-73.2903 19.8692-73.2903L60.9772-73.2903Q64.8926-73.2903 66.8991-71.2822Q68.9056-69.2741 68.9056-65.4114L68.9056-4.91486Q68.9056-1.05209 66.8991 0.955963Q64.8926 2.96402 60.9772 2.96402L19.8692 2.96402Q15.9508 2.96402 13.9671 0.955963Q11.9835-1.05209 11.9835-4.91486Z"/>
  </g>
 </g>
</svg>
