<?xml version="1.0" encoding="UTF-8"?>
<svg width="22px" height="22px" viewBox="0 0 22 22" version="1.1" xmlns="http://www.w3.org/2000/svg" xmlns:xlink="http://www.w3.org/1999/xlink">
    <title>line.3.horizontal.decrease.circle.fill</title>
    <g id="Icons" stroke="none" stroke-width="1" fill="none" fill-rule="evenodd">
        <g id="line.3.horizontal.decrease.circle.fill" fill="#007AFF" fill-rule="nonzero">
            <rect id="Rectangle" opacity="0" x="0" y="0" width="21.9141" height="21.9248"></rect>
            <path d="M10.957,21.9141 C16.9512,21.9141 21.9141,16.9404 21.9141,10.957 C21.9141,4.96289 16.9404,0 10.9463,0 C4.96289,0 0,4.96289 0,10.957 C0,16.9404 4.97363,21.9141 10.957,21.9141 Z M4.94141,8.75488 C4.44727,8.75488 4.09277,8.44336 4.09277,7.9707 C4.09277,7.49805 4.44727,7.18652 4.94141,7.18652 L17.0156,7.18652 C17.499,7.18652 17.8643,7.49805 17.8643,7.9707 C17.8643,8.44336 17.499,8.75488 17.0156,8.75488 L4.94141,8.75488 Z M6.58496,12.4287 C6.08008,12.4287 5.73633,12.1172 5.73633,11.6338 C5.73633,11.1611 6.08008,10.8496 6.58496,10.8496 L15.3721,10.8496 C15.8662,10.8496 16.21,11.1611 16.21,11.6338 C16.21,12.1172 15.8662,12.4287 15.3721,12.4287 L6.58496,12.4287 Z M8.29297,16.1025 C7.79883,16.1025 7.45508,15.7803 7.45508,15.3076 C7.45508,14.8457 7.79883,14.5342 8.29297,14.5342 L13.6533,14.5342 C14.1475,14.5342 14.502,14.8457 14.502,15.3076 C14.502,15.7803 14.1475,16.1025 13.6533,16.1025 L8.29297,16.1025 Z" id="Shape" fill-opacity="0.85"></path>
        </g>
    </g>
</svg>