<?xml version="1.0" encoding="UTF-8"?>
<svg width="20px" height="20px" viewBox="0 0 20 20" version="1.1" xmlns="http://www.w3.org/2000/svg" xmlns:xlink="http://www.w3.org/1999/xlink">
    <title>line.3.horizontal.decrease.circle.fill</title>
    <g id="Icons" stroke="none" stroke-width="1" fill="none" fill-rule="evenodd">
        <g id="line.3.horizontal.decrease.circle.fill" fill="#007AFF" fill-rule="nonzero">
            <rect id="Rectangle" opacity="0" x="0" y="0" width="19.9219" height="19.9316"></rect>
            <path d="M9.96094,19.9219 C15.4102,19.9219 19.9219,15.4004 19.9219,9.96094 C19.9219,4.51172 15.4004,0 9.95117,0 C4.51172,0 0,4.51172 0,9.96094 C0,15.4004 4.52148,19.9219 9.96094,19.9219 Z M4.49219,7.95898 C4.04297,7.95898 3.7207,7.67578 3.7207,7.24609 C3.7207,6.81641 4.04297,6.5332 4.49219,6.5332 L15.4688,6.5332 C15.9082,6.5332 16.2402,6.81641 16.2402,7.24609 C16.2402,7.67578 15.9082,7.95898 15.4688,7.95898 L4.49219,7.95898 Z M5.98633,11.2988 C5.52734,11.2988 5.21484,11.0156 5.21484,10.5762 C5.21484,10.1465 5.52734,9.86328 5.98633,9.86328 L13.9746,9.86328 C14.4238,9.86328 14.7363,10.1465 14.7363,10.5762 C14.7363,11.0156 14.4238,11.2988 13.9746,11.2988 L5.98633,11.2988 Z M7.53906,14.6387 C7.08984,14.6387 6.77734,14.3457 6.77734,13.916 C6.77734,13.4961 7.08984,13.2129 7.53906,13.2129 L12.4121,13.2129 C12.8613,13.2129 13.1836,13.4961 13.1836,13.916 C13.1836,14.3457 12.8613,14.6387 12.4121,14.6387 L7.53906,14.6387 Z" id="Shape" fill-opacity="0.85"></path>
        </g>
    </g>
</svg>