<?xml version="1.0" encoding="UTF-8"?>
<svg width="20px" height="20px" viewBox="0 0 20 20" version="1.1" xmlns="http://www.w3.org/2000/svg" xmlns:xlink="http://www.w3.org/1999/xlink">
    <title>line.3.horizontal.decrease.circle</title>
    <g id="Icons" stroke="none" stroke-width="1" fill="none" fill-rule="evenodd">
        <g id="line.3.horizontal.decrease.circle" fill="#8E8E8E" fill-rule="nonzero">
            <rect id="Rectangle" opacity="0" x="0" y="0" width="19.9219" height="19.9316"></rect>
            <path d="M9.96094,19.9219 C15.4102,19.9219 19.9219,15.4004 19.9219,9.96094 C19.9219,4.51172 15.4004,0 9.95117,0 C4.51172,0 0,4.51172 0,9.96094 C0,15.4004 4.52148,19.9219 9.96094,19.9219 Z M9.96094,18.2617 C5.35156,18.2617 1.66992,14.5703 1.66992,9.96094 C1.66992,5.35156 5.3418,1.66016 9.95117,1.66016 C14.5605,1.66016 18.2617,5.35156 18.2617,9.96094 C18.2617,14.5703 14.5703,18.2617 9.96094,18.2617 Z M4.64844,8.03711 L15.293,8.03711 C15.7227,8.03711 16.0352,7.76367 16.0352,7.34375 C16.0352,6.93359 15.7227,6.66016 15.293,6.66016 L4.64844,6.66016 C4.20898,6.66016 3.90625,6.93359 3.90625,7.34375 C3.90625,7.76367 4.20898,8.03711 4.64844,8.03711 Z M6.09375,11.2695 L13.8477,11.2695 C14.2773,11.2695 14.5801,10.9961 14.5801,10.5762 C14.5801,10.166 14.2773,9.89258 13.8477,9.89258 L6.09375,9.89258 C5.6543,9.89258 5.35156,10.166 5.35156,10.5762 C5.35156,10.9961 5.6543,11.2695 6.09375,11.2695 Z M7.59766,14.5117 L12.334,14.5117 C12.7637,14.5117 13.0762,14.2285 13.0762,13.8184 C13.0762,13.4082 12.7637,13.1348 12.334,13.1348 L7.59766,13.1348 C7.16797,13.1348 6.86523,13.4082 6.86523,13.8184 C6.86523,14.2285 7.16797,14.5117 7.59766,14.5117 Z" id="Shape" fill-opacity="0.85"></path>
        </g>
    </g>
</svg>