<?xml version="1.0" encoding="UTF-8"?>
<svg width="22px" height="22px" viewBox="0 0 22 22" version="1.1" xmlns="http://www.w3.org/2000/svg" xmlns:xlink="http://www.w3.org/1999/xlink">
    <title>line.3.horizontal.decrease.circle</title>
    <g id="Icons" stroke="none" stroke-width="1" fill="none" fill-rule="evenodd">
        <g id="line.3.horizontal.decrease.circle" fill="#8E8E8E" fill-rule="nonzero">
            <rect id="Rectangle" opacity="0" x="0" y="0" width="21.9141" height="21.9248"></rect>
            <path d="M10.957,21.9141 C16.9512,21.9141 21.9141,16.9404 21.9141,10.957 C21.9141,4.96289 16.9404,0 10.9463,0 C4.96289,0 0,4.96289 0,10.957 C0,16.9404 4.97363,21.9141 10.957,21.9141 Z M10.957,20.0879 C5.88672,20.0879 1.83691,16.0273 1.83691,10.957 C1.83691,5.88672 5.87598,1.82617 10.9463,1.82617 C16.0166,1.82617 20.0879,5.88672 20.0879,10.957 C20.0879,16.0273 16.0273,20.0879 10.957,20.0879 Z M5.11328,8.84082 L16.8223,8.84082 C17.2949,8.84082 17.6387,8.54004 17.6387,8.07812 C17.6387,7.62695 17.2949,7.32617 16.8223,7.32617 L5.11328,7.32617 C4.62988,7.32617 4.29688,7.62695 4.29688,8.07812 C4.29688,8.54004 4.62988,8.84082 5.11328,8.84082 Z M6.70312,12.3965 L15.2324,12.3965 C15.7051,12.3965 16.0381,12.0957 16.0381,11.6338 C16.0381,11.1826 15.7051,10.8818 15.2324,10.8818 L6.70312,10.8818 C6.21973,10.8818 5.88672,11.1826 5.88672,11.6338 C5.88672,12.0957 6.21973,12.3965 6.70312,12.3965 Z M8.35742,15.9629 L13.5674,15.9629 C14.04,15.9629 14.3838,15.6514 14.3838,15.2002 C14.3838,14.749 14.04,14.4482 13.5674,14.4482 L8.35742,14.4482 C7.88477,14.4482 7.55176,14.749 7.55176,15.2002 C7.55176,15.6514 7.88477,15.9629 8.35742,15.9629 Z" id="Shape" fill-opacity="0.85"></path>
        </g>
    </g>
</svg>